<?xml version="1.0" encoding="UTF-8" ?>
<!DOCTYPE svg PUBLIC "-//W3C//DTD SVG 1.1//EN" "http://www.w3.org/Graphics/SVG/1.1/DTD/svg11.dtd">
<svg width="718pt" height="733pt" viewBox="0 0 718 733" version="1.1" xmlns="http://www.w3.org/2000/svg">
<g id="#ffffffff">
<path fill="#ffffff" opacity="1.00" d=" M 326.08 269.42 C 328.88 266.91 332.62 265.84 336.34 266.33 C 335.12 270.98 329.66 269.72 326.08 269.42 Z" />
<path fill="#ffffff" opacity="1.00" d=" M 330.75 485.08 C 332.28 484.94 333.81 484.82 335.34 484.71 C 335.84 492.76 335.50 500.84 336.03 508.90 C 334.50 509.03 332.96 509.17 331.43 509.31 C 330.92 501.24 331.18 493.15 330.75 485.08 Z" />
<path fill="#ffffff" opacity="1.00" d=" M 303.04 486.13 C 306.31 484.40 310.12 485.22 313.61 485.60 C 313.65 486.69 313.70 487.78 313.76 488.88 C 311.26 488.47 308.70 487.75 306.17 488.31 C 304.14 488.84 303.43 491.51 304.91 493.00 C 307.95 495.42 312.02 496.41 314.63 499.40 C 317.10 502.53 315.75 507.53 312.25 509.29 C 308.59 511.07 304.38 510.29 300.47 510.11 C 300.34 509.18 300.08 507.31 299.95 506.38 C 302.87 506.98 305.98 508.27 308.95 507.12 C 311.37 506.35 311.71 502.61 309.66 501.27 C 306.63 499.01 302.47 498.02 300.38 494.64 C 298.55 491.71 300.00 487.59 303.04 486.13 Z" />
<path fill="#ffffff" opacity="1.00" d=" M 342.31 485.06 C 344.41 485.06 346.52 485.06 348.63 485.08 C 350.49 490.90 352.49 496.67 354.55 502.43 C 356.83 496.71 358.60 490.80 360.73 485.02 C 362.55 485.04 364.37 485.06 366.20 485.09 C 366.17 493.12 366.21 501.16 366.18 509.19 C 364.72 509.18 363.27 509.18 361.81 509.18 C 361.72 502.93 361.99 496.67 361.62 490.43 C 359.66 496.10 357.68 501.76 355.72 507.43 C 354.46 507.41 353.20 507.40 351.94 507.39 C 349.96 501.69 348.20 495.91 346.15 490.24 C 345.79 496.57 346.05 502.93 345.94 509.27 C 344.73 509.21 343.53 509.15 342.34 509.10 C 342.33 501.08 342.38 493.07 342.31 485.06 Z" />
<path fill="#ffffff" opacity="1.00" d=" M 373.40 485.56 C 377.49 485.77 381.72 485.34 385.71 486.46 C 390.48 488.32 389.91 495.49 386.37 498.31 C 383.88 500.41 380.48 500.20 377.43 500.26 C 377.27 503.38 377.17 506.51 377.16 509.64 C 375.62 509.64 374.08 509.64 372.55 509.66 C 372.80 501.62 373.11 493.59 373.40 485.56 M 377.72 488.47 C 377.68 491.51 377.60 494.55 377.47 497.60 C 380.26 497.28 384.34 496.67 384.35 493.02 C 385.07 489.10 380.55 488.45 377.72 488.47 Z" />
<path fill="#ffffff" opacity="1.00" d=" M 289.73 486.90 C 290.70 486.82 292.66 486.67 293.64 486.59 C 294.08 493.02 294.93 499.48 294.53 505.93 C 292.78 513.98 278.57 514.18 276.80 506.01 C 275.64 500.04 275.86 493.92 275.29 487.88 C 276.82 487.78 278.36 487.68 279.90 487.58 C 280.40 493.71 280.25 499.93 281.48 505.98 C 282.54 510.44 290.64 509.83 290.71 505.08 C 291.03 499.01 289.96 492.96 289.73 486.90 Z" />
<path fill="#ffffff" opacity="1.00" d=" M 400.87 487.04 C 402.44 487.06 404.01 487.08 405.58 487.12 C 408.19 495.31 410.85 503.49 413.51 511.67 C 411.96 511.65 410.42 511.62 408.89 511.61 C 408.17 509.37 407.48 507.14 406.79 504.90 C 403.31 504.61 399.83 504.40 396.34 504.41 C 395.44 506.48 394.54 508.56 393.66 510.65 C 392.56 510.63 391.48 510.62 390.39 510.62 C 393.98 502.80 397.37 494.89 400.87 487.04 M 397.77 501.54 C 400.42 501.68 403.07 501.79 405.73 501.83 C 404.67 498.34 403.56 494.87 402.29 491.46 C 400.61 494.74 399.09 498.10 397.77 501.54 Z" />
<path fill="#ffffff" opacity="1.00" d=" M 416.81 487.95 C 418.42 488.08 420.05 488.23 421.67 488.39 C 423.35 494.99 425.16 501.56 426.94 508.14 C 430.14 502.15 432.30 495.64 435.63 489.73 C 436.32 489.73 437.72 489.72 438.42 489.71 C 435.36 497.17 431.98 504.50 428.63 511.83 C 427.84 514.03 425.09 512.57 423.41 512.74 C 421.26 504.46 418.92 496.24 416.81 487.95 Z" />
<path fill="#ffffff" opacity="1.00" d=" M 249.45 490.12 C 256.61 489.74 263.73 488.57 270.90 488.45 C 271.10 489.11 271.49 490.44 271.69 491.11 C 268.76 491.39 265.84 491.65 262.92 491.98 C 263.38 499.02 264.12 506.04 264.64 513.07 C 263.10 513.18 261.57 513.28 260.04 513.40 C 259.53 506.38 258.81 499.38 258.28 492.37 C 255.40 492.58 252.52 492.82 249.65 493.04 C 249.60 492.31 249.50 490.85 249.45 490.12 Z" />
<path fill="#ffffff" opacity="1.00" d=" M 442.88 490.99 C 444.41 491.13 445.95 491.28 447.50 491.44 C 446.66 499.42 445.80 507.40 445.05 515.39 C 443.53 515.25 442.02 515.13 440.51 515.01 C 441.17 506.99 442.17 499.00 442.88 490.99 Z" />
<path fill="#ffffff" opacity="1.00" d=" M 228.56 492.96 C 233.28 492.93 238.71 490.26 243.02 492.98 C 247.04 496.26 244.68 501.85 241.33 504.62 C 244.36 507.87 247.25 511.25 250.23 514.56 C 248.43 514.78 246.64 515.02 244.86 515.27 C 242.43 512.28 240.09 509.23 237.77 506.16 C 236.69 506.23 235.61 506.31 234.54 506.39 C 234.92 509.70 235.31 513.02 235.73 516.33 C 234.29 516.51 232.86 516.69 231.43 516.89 C 230.51 508.91 229.52 500.94 228.56 492.96 M 233.19 495.18 C 233.48 497.99 233.84 500.80 234.24 503.61 C 237.31 503.31 241.13 501.89 240.62 498.10 C 240.46 494.23 235.81 495.12 233.19 495.18 Z" />
<path fill="#ffffff" opacity="1.00" d=" M 451.52 516.07 C 452.53 508.11 453.71 500.17 454.76 492.22 C 459.55 492.99 464.52 493.13 469.13 494.79 C 478.49 499.45 475.26 516.35 464.97 517.57 C 460.44 517.76 456.00 516.53 451.52 516.07 M 456.36 513.70 C 459.91 514.00 464.61 515.63 467.21 512.25 C 469.85 508.70 470.62 503.44 468.51 499.48 C 466.58 496.08 462.19 496.37 458.87 495.79 C 458.07 501.77 457.31 507.75 456.36 513.70 Z" />
<path fill="#ffffff" opacity="1.00" d=" M 217.14 494.98 C 218.65 494.77 220.16 494.57 221.67 494.38 C 222.75 502.32 223.82 510.26 224.94 518.19 C 223.41 518.42 221.89 518.65 220.36 518.89 C 219.38 510.90 218.15 502.96 217.14 494.98 Z" />
<path fill="#ffffff" opacity="1.00" d=" M 209.41 496.52 C 210.44 496.35 211.46 496.18 212.49 496.03 C 211.04 504.40 209.70 512.79 208.20 521.16 C 206.72 521.48 205.23 521.79 203.75 522.13 C 199.37 514.77 195.18 507.31 190.92 499.88 C 192.51 499.59 194.10 499.32 195.69 499.04 C 199.09 504.94 202.39 510.89 205.89 516.73 C 207.21 510.02 208.15 503.24 209.41 496.52 Z" />
<path fill="#ffffff" opacity="1.00" d=" M 475.01 519.90 C 479.20 512.38 483.63 505.00 487.82 497.48 C 489.36 497.69 490.91 497.92 492.47 498.16 C 494.27 506.61 496.11 515.04 497.84 523.50 C 496.31 523.24 494.79 522.99 493.28 522.75 C 492.78 520.44 492.27 518.14 491.77 515.84 C 488.36 515.30 484.95 514.73 481.55 514.20 C 480.45 516.22 479.33 518.24 478.21 520.25 C 477.41 520.17 475.81 519.99 475.01 519.90 M 483.22 511.58 C 485.85 512.00 488.48 512.44 491.12 512.90 C 490.41 509.22 489.63 505.56 488.79 501.93 C 486.82 505.08 484.99 508.31 483.22 511.58 Z" />
</g>
<g id="#9e2a39ff">
<path fill="#9e2a39" opacity="1.00" d=" M 335.45 27.64 C 344.28 30.71 351.72 38.15 354.52 47.12 C 357.68 56.28 356.92 66.49 353.45 75.45 C 349.35 84.29 341.97 91.50 339.59 101.14 C 337.63 108.05 341.86 116.38 349.00 118.11 C 351.22 118.74 353.96 117.51 354.31 115.05 C 354.75 110.10 350.75 106.37 349.48 101.86 C 348.87 97.81 350.55 93.91 352.25 90.33 C 355.86 82.97 360.97 76.11 362.45 67.89 C 363.18 64.13 362.28 60.38 361.26 56.78 C 365.11 59.27 368.33 62.91 369.35 67.48 C 370.81 74.27 369.86 81.28 368.83 88.08 C 368.65 89.91 368.16 91.99 369.40 93.58 C 372.98 99.28 378.82 103.96 380.02 110.89 C 380.10 118.37 375.25 125.18 369.00 128.94 C 358.69 135.37 345.78 136.11 334.11 133.70 C 326.35 131.93 318.28 129.11 312.85 123.00 C 308.81 118.49 307.74 111.59 310.26 106.08 C 318.73 88.63 334.97 75.73 340.92 56.94 C 344.23 46.87 340.19 36.50 335.45 27.64 Z" />
<path fill="#9e2a39" opacity="1.00" d=" M 241.24 31.79 C 250.85 35.39 258.71 43.78 261.09 53.85 C 263.74 64.62 262.19 76.75 255.83 85.97 C 251.68 92.68 246.40 99.12 245.16 107.14 C 244.06 113.67 248.39 121.02 255.01 122.44 C 257.33 123.08 260.25 121.58 260.21 118.96 C 260.34 114.45 257.04 110.94 255.50 106.93 C 254.50 103.24 255.94 99.45 257.42 96.10 C 261.22 87.78 267.31 80.23 268.50 70.91 C 269.07 67.55 267.91 64.28 267.04 61.08 C 270.61 63.45 273.81 66.69 274.90 70.95 C 277.41 79.16 274.91 87.66 274.40 95.94 C 277.19 102.52 283.82 106.97 285.67 114.10 C 286.51 120.36 283.09 126.51 278.51 130.56 C 270.99 137.03 260.74 139.46 251.01 139.36 C 241.85 139.04 232.57 136.97 224.63 132.26 C 219.79 129.41 215.59 124.78 214.86 119.02 C 213.82 113.46 216.89 108.31 219.79 103.84 C 226.75 92.67 235.88 82.98 242.38 71.51 C 246.19 64.77 248.91 56.94 247.65 49.12 C 246.82 42.93 243.92 37.34 241.24 31.79 Z" />
<path fill="#9e2a39" opacity="1.00" d=" M 429.55 31.79 C 438.21 35.15 445.82 42.24 448.61 51.25 C 451.74 60.17 451.10 70.12 447.97 78.94 C 444.03 88.03 436.49 95.31 433.86 105.03 C 432.04 111.18 434.80 118.48 440.56 121.49 C 442.60 122.57 445.51 123.25 447.36 121.43 C 449.22 119.54 448.39 116.53 447.53 114.35 C 446.00 110.50 442.43 106.95 443.63 102.49 C 446.05 91.58 454.75 83.17 456.70 72.06 C 457.45 68.36 456.42 64.65 455.46 61.09 C 459.66 63.72 462.89 67.91 463.72 72.86 C 465.52 80.59 463.07 88.35 462.75 96.08 C 465.76 103.12 473.54 107.86 474.23 115.99 C 473.84 122.89 469.64 129.16 463.89 132.83 C 453.40 139.70 439.98 140.63 427.97 137.99 C 420.24 136.18 412.18 133.34 406.87 127.13 C 402.74 122.44 401.85 115.28 404.70 109.72 C 412.15 95.39 424.10 84.00 431.67 69.73 C 434.72 64.00 436.73 57.51 436.15 50.96 C 435.70 44.09 432.51 37.86 429.55 31.79 Z" />
<path fill="#9e2a39" opacity="1.00" d=" M 322.03 465.68 C 386.49 464.32 451.24 469.62 514.34 483.09 C 512.59 494.11 510.53 505.08 508.64 516.07 C 515.56 517.42 522.50 518.68 529.35 520.37 C 526.07 535.69 523.03 551.06 519.64 566.36 C 498.21 561.51 476.51 557.65 454.63 555.54 C 470.37 550.84 486.38 547.06 502.13 542.38 C 453.47 532.18 403.80 527.04 354.11 526.13 C 297.62 525.38 240.91 530.32 185.72 542.66 C 201.62 546.81 217.54 550.95 233.33 555.51 C 211.35 557.63 189.55 561.50 168.02 566.38 C 164.77 551.04 161.65 535.67 158.37 520.34 C 165.69 518.63 173.08 517.22 180.46 515.83 C 178.50 504.93 176.59 494.02 174.75 483.11 C 223.08 472.28 272.54 466.95 322.03 465.68 M 330.75 485.08 C 331.18 493.15 330.92 501.24 331.43 509.31 C 332.96 509.17 334.50 509.03 336.03 508.90 C 335.50 500.84 335.84 492.76 335.34 484.71 C 333.81 484.82 332.28 484.94 330.75 485.08 M 303.04 486.13 C 300.00 487.59 298.55 491.71 300.38 494.64 C 302.47 498.02 306.63 499.01 309.66 501.27 C 311.71 502.61 311.37 506.35 308.95 507.12 C 305.98 508.27 302.87 506.98 299.95 506.38 C 300.08 507.31 300.34 509.18 300.47 510.11 C 304.38 510.29 308.59 511.07 312.25 509.29 C 315.75 507.53 317.10 502.53 314.63 499.40 C 312.02 496.41 307.95 495.42 304.91 493.00 C 303.43 491.51 304.14 488.84 306.17 488.31 C 308.70 487.75 311.26 488.47 313.76 488.88 C 313.70 487.78 313.65 486.69 313.61 485.60 C 310.12 485.22 306.31 484.40 303.04 486.13 M 342.31 485.06 C 342.38 493.07 342.33 501.08 342.34 509.10 C 343.53 509.15 344.73 509.21 345.94 509.27 C 346.05 502.93 345.79 496.57 346.15 490.24 C 348.20 495.91 349.96 501.69 351.94 507.39 C 353.20 507.40 354.46 507.41 355.72 507.43 C 357.68 501.76 359.66 496.10 361.62 490.43 C 361.99 496.67 361.72 502.93 361.81 509.18 C 363.27 509.18 364.72 509.18 366.18 509.19 C 366.21 501.16 366.17 493.12 366.20 485.09 C 364.37 485.06 362.55 485.04 360.73 485.02 C 358.60 490.80 356.83 496.71 354.55 502.43 C 352.49 496.67 350.49 490.90 348.63 485.08 C 346.52 485.06 344.41 485.06 342.31 485.06 M 373.40 485.56 C 373.11 493.59 372.80 501.62 372.55 509.66 C 374.08 509.64 375.62 509.64 377.16 509.64 C 377.17 506.51 377.27 503.38 377.43 500.26 C 380.48 500.20 383.88 500.41 386.37 498.31 C 389.91 495.49 390.48 488.32 385.71 486.46 C 381.72 485.34 377.49 485.77 373.40 485.56 M 289.73 486.90 C 289.96 492.96 291.03 499.01 290.71 505.08 C 290.64 509.83 282.54 510.44 281.48 505.98 C 280.25 499.93 280.40 493.71 279.90 487.58 C 278.36 487.68 276.82 487.78 275.29 487.88 C 275.86 493.92 275.64 500.04 276.80 506.01 C 278.57 514.18 292.78 513.98 294.53 505.93 C 294.93 499.48 294.08 493.02 293.64 486.59 C 292.66 486.67 290.70 486.82 289.73 486.90 M 400.87 487.04 C 397.37 494.89 393.98 502.80 390.39 510.62 C 391.48 510.62 392.56 510.63 393.66 510.65 C 394.54 508.56 395.44 506.48 396.34 504.41 C 399.83 504.40 403.31 504.61 406.79 504.90 C 407.48 507.14 408.17 509.37 408.89 511.61 C 410.42 511.62 411.96 511.65 413.51 511.67 C 410.85 503.49 408.19 495.31 405.58 487.12 C 404.01 487.08 402.44 487.06 400.87 487.04 M 416.81 487.95 C 418.92 496.24 421.26 504.46 423.41 512.74 C 425.09 512.57 427.84 514.03 428.63 511.83 C 431.98 504.50 435.36 497.17 438.42 489.71 C 437.72 489.72 436.32 489.73 435.63 489.73 C 432.30 495.64 430.14 502.15 426.94 508.14 C 425.16 501.56 423.35 494.99 421.67 488.39 C 420.05 488.23 418.42 488.08 416.81 487.95 M 249.45 490.12 C 249.50 490.85 249.60 492.31 249.65 493.04 C 252.52 492.82 255.40 492.58 258.28 492.37 C 258.81 499.38 259.53 506.38 260.04 513.40 C 261.57 513.28 263.10 513.18 264.64 513.07 C 264.12 506.04 263.38 499.02 262.92 491.98 C 265.84 491.65 268.76 491.39 271.69 491.11 C 271.49 490.44 271.10 489.11 270.90 488.45 C 263.73 488.57 256.61 489.74 249.45 490.12 M 442.88 490.99 C 442.17 499.00 441.17 506.99 440.51 515.01 C 442.02 515.13 443.53 515.25 445.05 515.39 C 445.80 507.40 446.66 499.42 447.50 491.44 C 445.95 491.28 444.41 491.13 442.88 490.99 M 228.56 492.96 C 229.52 500.94 230.51 508.91 231.43 516.89 C 232.86 516.69 234.29 516.51 235.73 516.33 C 235.31 513.02 234.92 509.70 234.54 506.39 C 235.61 506.31 236.69 506.23 237.77 506.16 C 240.09 509.23 242.43 512.28 244.86 515.27 C 246.64 515.02 248.43 514.78 250.23 514.56 C 247.25 511.25 244.36 507.87 241.33 504.62 C 244.68 501.85 247.04 496.26 243.02 492.98 C 238.71 490.26 233.28 492.93 228.56 492.96 M 451.52 516.07 C 456.00 516.53 460.44 517.76 464.97 517.57 C 475.26 516.35 478.49 499.45 469.13 494.79 C 464.52 493.13 459.55 492.99 454.76 492.22 C 453.71 500.17 452.53 508.11 451.52 516.07 M 217.14 494.98 C 218.15 502.96 219.38 510.90 220.36 518.89 C 221.89 518.65 223.41 518.42 224.94 518.19 C 223.82 510.26 222.75 502.32 221.67 494.38 C 220.16 494.57 218.65 494.77 217.14 494.98 M 209.41 496.52 C 208.15 503.24 207.21 510.02 205.89 516.73 C 202.39 510.89 199.09 504.94 195.69 499.04 C 194.10 499.32 192.51 499.59 190.92 499.88 C 195.18 507.31 199.37 514.77 203.75 522.13 C 205.23 521.79 206.72 521.48 208.20 521.16 C 209.70 512.79 211.04 504.40 212.49 496.03 C 211.46 496.18 210.44 496.35 209.41 496.52 M 475.01 519.90 C 475.81 519.99 477.41 520.17 478.21 520.25 C 479.33 518.24 480.45 516.22 481.55 514.20 C 484.95 514.73 488.36 515.30 491.77 515.84 C 492.27 518.14 492.78 520.44 493.28 522.75 C 494.79 522.99 496.31 523.24 497.84 523.50 C 496.11 515.04 494.27 506.61 492.47 498.16 C 490.91 497.92 489.36 497.69 487.82 497.48 C 483.63 505.00 479.20 512.38 475.01 519.90 Z" />
<path fill="#9e2a39" opacity="1.00" d=" M 377.72 488.47 C 380.55 488.45 385.07 489.10 384.35 493.02 C 384.34 496.67 380.26 497.28 377.47 497.60 C 377.60 494.55 377.68 491.51 377.72 488.47 Z" />
<path fill="#9e2a39" opacity="1.00" d=" M 397.77 501.54 C 399.09 498.10 400.61 494.74 402.29 491.46 C 403.56 494.87 404.67 498.34 405.73 501.83 C 403.07 501.79 400.42 501.68 397.77 501.54 Z" />
<path fill="#9e2a39" opacity="1.00" d=" M 233.19 495.18 C 235.81 495.12 240.46 494.23 240.62 498.10 C 241.13 501.89 237.31 503.31 234.24 503.61 C 233.84 500.80 233.48 497.99 233.19 495.18 Z" />
<path fill="#9e2a39" opacity="1.00" d=" M 456.36 513.70 C 457.31 507.75 458.07 501.77 458.87 495.79 C 462.19 496.37 466.58 496.08 468.51 499.48 C 470.62 503.44 469.85 508.70 467.21 512.25 C 464.61 515.63 459.91 514.00 456.36 513.70 Z" />
<path fill="#9e2a39" opacity="1.00" d=" M 483.22 511.58 C 484.99 508.31 486.82 505.08 488.79 501.93 C 489.63 505.56 490.41 509.22 491.12 512.90 C 488.48 512.44 485.85 512.00 483.22 511.58 Z" />
</g>
<g id="#181617ff">
<path fill="#181617" opacity="1.00" d=" M 321.42 140.27 C 337.13 137.59 353.33 137.60 368.98 140.58 C 373.06 141.97 376.49 145.75 376.82 150.15 C 377.38 155.91 373.33 160.74 368.95 163.93 C 352.93 160.36 336.03 160.39 320.00 163.92 C 316.26 161.36 313.02 157.67 312.20 153.10 C 310.92 147.23 315.60 141.12 321.42 140.27 Z" />
<path fill="#181617" opacity="1.00" d=" M 225.08 145.64 C 241.02 142.22 257.56 141.59 273.66 144.19 C 278.49 145.78 282.23 150.70 281.56 155.89 C 281.16 160.70 277.88 164.61 274.22 167.47 C 258.02 164.42 241.12 165.15 225.15 169.13 C 221.52 166.76 218.20 163.48 217.19 159.12 C 215.41 153.45 219.53 147.14 225.08 145.64 Z" />
<path fill="#181617" opacity="1.00" d=" M 415.11 144.23 C 431.29 141.57 447.95 142.19 463.96 145.70 C 468.72 147.11 472.53 151.98 472.03 157.06 C 471.76 162.33 467.82 166.55 463.53 169.18 C 447.68 165.01 430.80 164.49 414.69 167.48 C 410.86 164.38 407.18 160.22 407.32 154.97 C 407.00 150.09 410.72 145.83 415.11 144.23 Z" />
<path fill="#181617" opacity="1.00" d=" M 320.34 169.06 C 336.01 164.97 352.76 164.94 368.43 169.04 C 368.42 172.93 368.42 176.82 368.44 180.71 C 352.42 180.26 336.36 180.24 320.33 180.73 C 320.36 176.84 320.35 172.95 320.34 169.06 Z" />
<path fill="#181617" opacity="1.00" d=" M 225.74 174.24 C 241.33 169.74 258.13 168.98 273.96 172.67 C 274.04 176.17 274.24 179.67 274.26 183.17 C 258.24 184.53 242.26 186.40 226.37 188.86 C 226.27 183.98 225.90 179.11 225.74 174.24 Z" />
<path fill="#181617" opacity="1.00" d=" M 414.99 172.66 C 430.74 169.02 447.48 169.70 462.98 174.23 C 463.13 178.95 462.58 183.64 462.55 188.36 C 446.67 185.84 430.68 184.05 414.67 182.63 C 414.77 179.30 414.78 175.98 414.99 172.66 Z" />
<path fill="#181617" opacity="1.00" d=" M 192.72 203.97 C 254.70 189.74 318.70 186.59 382.08 189.06 C 420.47 190.83 458.80 195.36 496.28 204.01 C 493.28 268.04 494.22 332.38 485.97 396.07 C 482.30 420.77 478.40 446.27 465.98 468.34 C 461.76 467.63 457.54 466.86 453.31 466.22 C 464.43 452.18 468.76 434.29 472.54 417.15 C 480.28 377.59 481.98 337.19 483.59 297.01 C 484.61 268.89 484.92 240.74 486.44 212.63 C 444.05 202.81 400.45 199.25 357.03 198.42 C 305.22 197.89 253.05 201.06 202.41 212.59 C 204.87 258.02 204.57 303.57 207.99 348.95 C 209.89 375.54 212.54 402.23 218.89 428.18 C 222.45 441.55 226.69 455.29 235.60 466.17 C 231.40 466.89 227.21 467.59 223.03 468.35 C 216.07 456.51 212.08 443.22 208.95 429.93 C 202.70 402.33 200.10 374.08 198.11 345.90 C 194.98 298.65 194.76 251.27 192.72 203.97 Z" />
<path fill="#181617" opacity="1.00" d=" M 245.49 224.30 C 252.28 216.42 262.54 211.59 272.96 211.53 C 283.33 211.20 293.74 211.11 304.08 212.10 C 328.80 214.66 353.18 219.98 378.03 221.38 C 395.54 221.99 413.41 220.36 429.83 213.90 C 428.35 216.35 426.34 218.46 423.80 219.81 C 414.78 224.96 404.55 227.37 394.54 229.76 C 374.73 233.97 354.30 236.87 334.07 234.29 C 321.77 232.53 309.41 231.01 296.98 230.65 C 286.96 230.56 276.63 230.49 267.07 233.91 C 262.79 235.42 258.30 238.94 258.61 243.97 C 258.22 245.64 260.57 247.03 261.97 246.15 C 271.07 242.69 280.04 238.50 289.79 237.21 C 303.50 235.44 317.30 237.40 330.95 238.80 C 344.06 240.34 357.43 240.30 370.41 237.69 C 364.40 241.51 357.45 243.40 350.52 244.72 C 335.49 247.51 320.17 247.58 304.95 248.16 C 299.32 248.37 293.59 248.12 288.10 249.55 C 278.32 252.37 269.69 258.15 259.92 260.97 C 254.90 262.43 248.97 262.69 244.61 259.35 C 239.90 255.83 238.74 249.56 238.54 244.04 C 238.11 236.87 240.74 229.66 245.49 224.30 Z" />
<path fill="#181617" opacity="1.00" d=" M 302.88 269.75 C 315.58 265.12 328.70 259.20 342.52 260.58 C 347.37 266.17 346.27 274.02 345.45 280.78 C 350.60 275.21 349.59 266.32 346.38 259.97 C 356.55 260.09 367.37 260.79 376.32 266.11 C 373.96 267.70 372.19 269.94 371.70 272.80 C 378.13 279.96 384.59 287.36 388.29 296.38 C 386.83 296.08 385.37 295.83 383.91 295.65 C 388.28 302.36 392.63 309.24 394.90 317.00 C 397.23 324.02 397.52 331.46 397.55 338.79 C 396.34 337.28 395.03 335.86 393.60 334.56 C 391.94 352.04 386.91 371.85 371.13 381.88 C 372.49 376.51 373.73 370.64 371.32 365.37 C 370.13 368.44 369.69 371.86 367.72 374.59 C 364.10 379.80 358.55 383.27 352.85 385.83 C 344.35 389.59 335.91 394.43 330.26 402.02 C 326.70 406.79 325.16 413.32 327.40 419.00 C 328.96 423.87 332.84 427.46 336.85 430.40 C 321.62 428.89 307.56 420.44 298.62 408.10 C 293.97 402.03 291.06 394.91 288.37 387.82 C 286.41 392.16 285.61 396.90 283.79 401.29 C 280.54 394.02 278.57 385.87 280.14 377.92 C 281.97 367.48 289.40 358.71 298.50 353.62 C 301.38 351.91 304.65 350.99 307.47 349.16 C 302.44 348.56 297.44 349.70 292.92 351.88 C 295.05 346.80 298.40 342.27 302.64 338.76 C 314.41 328.78 328.69 322.42 342.88 316.72 C 345.40 313.89 345.79 308.59 342.31 306.24 C 345.51 304.73 349.14 303.06 350.55 299.55 C 352.01 295.20 349.74 290.22 346.15 287.62 C 347.41 291.51 350.41 297.12 346.06 300.12 C 340.14 302.92 333.30 301.92 326.97 301.66 C 323.37 301.45 320.01 302.98 316.63 303.97 C 314.17 301.14 313.47 297.44 313.02 293.84 C 315.69 296.99 319.93 298.23 323.96 297.63 C 325.56 297.39 327.20 295.77 326.32 294.07 C 324.46 288.41 319.82 283.24 313.96 281.68 C 310.53 280.65 307.93 283.67 306.16 286.15 C 304.71 284.27 302.63 282.47 302.59 279.92 C 302.46 276.52 302.98 273.14 302.88 269.75 M 326.08 269.42 C 329.66 269.72 335.12 270.98 336.34 266.33 C 332.62 265.84 328.88 266.91 326.08 269.42 Z" />
<path fill="#181617" opacity="1.00" d=" M 227.36 265.49 C 241.90 265.15 256.48 265.47 271.04 265.33 C 274.45 265.03 277.34 267.50 279.40 269.94 C 282.93 274.73 281.60 281.44 278.43 286.06 C 276.67 288.50 274.42 291.64 271.01 291.24 C 256.97 291.19 242.92 291.26 228.88 291.22 C 227.21 291.45 225.96 290.20 224.84 289.18 C 221.43 285.72 218.84 281.00 219.32 275.99 C 219.07 271.09 222.99 267.04 227.36 265.49 Z" />
<path fill="#181617" opacity="1.00" d=" M 418.22 279.16 C 425.53 272.16 436.15 269.56 446.05 270.46 C 458.13 271.57 468.38 281.40 471.08 293.06 C 473.76 303.18 472.38 313.73 471.16 323.95 C 468.33 344.29 467.20 364.82 464.89 385.22 C 463.91 372.87 461.48 360.68 457.80 348.86 C 455.75 341.44 452.77 333.89 453.77 326.07 C 454.53 320.27 458.18 315.46 462.15 311.40 C 464.09 309.82 463.68 307.15 464.06 304.96 C 464.77 298.20 463.49 290.53 458.23 285.77 C 453.34 280.56 446.15 277.14 438.90 278.21 C 430.32 278.85 421.74 284.40 419.47 293.02 C 416.78 301.50 421.75 309.62 424.96 317.18 C 432.07 331.16 438.07 345.66 443.94 360.19 C 448.49 371.69 453.22 383.17 456.60 395.08 C 458.16 403.29 458.94 411.65 459.39 420.00 C 460.14 435.27 453.76 451.01 441.78 460.69 C 440.07 461.91 438.31 463.77 436.00 463.12 C 425.73 461.75 414.28 460.98 406.15 453.78 C 398.93 447.03 401.10 436.04 403.93 427.72 C 400.00 430.41 397.75 434.75 396.61 439.27 C 379.66 432.87 360.72 437.01 343.84 430.39 C 337.65 428.08 331.94 422.75 331.49 415.83 C 330.79 411.13 332.49 406.32 335.77 402.93 C 343.70 394.77 355.16 391.84 364.18 385.25 C 363.81 387.50 363.39 389.76 363.00 392.02 C 372.12 388.03 381.97 383.36 387.11 374.35 C 391.48 381.68 398.02 387.58 405.63 391.40 C 415.61 396.86 427.44 398.33 436.75 405.11 C 439.41 407.05 441.56 409.58 443.73 412.03 C 449.36 404.17 445.96 394.00 443.61 385.57 C 436.90 366.11 428.70 347.18 420.41 328.35 C 417.03 320.18 411.58 312.77 410.17 303.89 C 408.53 294.99 411.56 285.33 418.22 279.16 Z" />
<path fill="#181617" opacity="1.00" d=" M 306.08 290.81 C 311.08 289.38 316.75 286.73 321.72 289.70 C 316.48 291.31 311.07 292.26 305.85 293.94 C 302.83 294.81 299.47 296.01 296.40 294.65 C 294.13 293.76 292.83 291.56 291.37 289.75 C 295.92 292.05 301.24 292.46 306.08 290.81 Z" />
<path fill="#181617" opacity="1.00" d=" M 229.79 294.77 C 243.98 295.04 258.22 294.15 272.38 295.34 C 270.60 297.87 267.55 299.07 265.68 301.53 C 263.22 304.56 261.00 307.87 259.53 311.51 C 258.71 313.76 260.85 315.94 263.02 316.13 C 265.35 316.48 267.73 316.34 270.08 316.37 C 267.16 351.85 264.40 387.36 261.44 422.84 C 254.11 423.43 246.89 426.88 239.50 424.56 C 237.34 396.71 234.72 368.89 233.31 340.99 C 236.87 338.25 240.51 335.16 242.44 331.01 C 242.11 329.42 240.96 328.23 239.97 327.02 C 241.61 325.62 244.58 324.76 244.09 322.06 C 243.85 319.37 240.94 318.58 238.79 317.98 C 238.14 316.64 237.25 315.47 236.10 314.53 C 234.01 315.66 231.81 316.54 229.61 317.40 C 233.57 318.64 237.35 320.34 241.11 322.06 C 237.85 324.46 234.46 326.68 230.98 328.77 C 233.71 329.17 236.42 329.71 239.11 330.31 C 236.38 333.76 233.47 337.74 229.06 339.06 C 225.04 338.86 223.58 334.21 224.13 330.83 C 218.35 328.95 217.93 320.89 222.04 317.11 C 219.37 313.24 219.22 305.38 225.01 304.54 C 230.59 305.18 235.18 309.07 239.35 312.55 L 239.45 313.25 L 237.47 314.01 C 238.13 314.95 238.76 315.93 239.34 316.94 C 241.90 316.43 244.11 313.98 242.49 311.42 C 239.01 307.85 234.73 305.15 230.43 302.69 C 230.26 300.05 230.01 297.41 229.79 294.77 Z" />
<path fill="#181617" opacity="1.00" d=" M 271.81 300.64 C 277.49 297.53 283.87 307.65 278.19 311.20 C 273.26 313.45 267.66 312.98 262.37 312.97 C 264.78 308.40 267.35 303.51 271.81 300.64 Z" />
<path fill="#181617" opacity="1.00" d=" M 272.52 335.54 C 279.52 338.90 287.19 340.42 294.83 341.41 C 290.26 346.28 288.03 352.57 286.76 359.00 C 282.51 362.81 279.20 367.53 277.42 372.99 C 274.75 371.25 272.04 369.57 269.29 367.98 C 270.06 357.14 271.54 346.36 272.52 335.54 Z" />
<path fill="#181617" opacity="1.00" d=" M 288.72 399.84 C 292.30 411.38 301.77 420.17 312.01 426.04 C 318.65 429.72 326.11 431.70 333.66 432.35 C 323.80 438.22 313.82 443.98 303.17 448.29 C 295.70 451.16 288.49 454.70 280.78 456.90 C 270.74 460.10 260.23 461.34 249.94 463.43 C 245.54 464.06 241.48 459.79 242.41 455.43 C 239.94 454.52 237.32 453.23 236.34 450.61 C 234.69 447.41 235.69 443.64 237.99 441.07 C 234.99 438.73 232.74 434.49 234.76 430.81 C 236.21 427.85 240.02 427.69 242.86 428.23 C 249.32 429.67 255.44 425.62 261.90 426.45 C 263.94 427.50 265.86 428.75 267.97 429.67 C 270.92 428.61 273.74 427.07 275.77 424.63 C 281.93 417.55 287.42 409.35 288.72 399.84 Z" />
<path fill="#181617" opacity="1.00" d=" M 334.75 534.34 C 341.26 534.36 347.77 534.33 354.28 534.36 C 354.05 548.02 352.30 562.35 344.47 573.95 C 336.65 562.36 334.72 548.02 334.75 534.34 Z" />
<path fill="#181617" opacity="1.00" d=" M 252.02 539.57 C 258.46 538.76 264.93 538.12 271.40 537.47 C 272.12 551.47 270.79 566.30 263.23 578.49 C 254.82 567.38 252.76 553.10 252.02 539.57 Z" />
<path fill="#181617" opacity="1.00" d=" M 425.70 578.64 C 418.17 566.44 416.99 551.75 417.33 537.76 C 423.78 538.56 430.25 539.09 436.70 539.87 C 436.42 553.40 433.74 567.44 425.70 578.64 Z" />
<path fill="#181617" opacity="1.00" d=" M 210.75 615.34 C 215.65 615.36 220.55 615.34 225.45 615.35 C 225.40 633.57 225.45 651.80 225.42 670.03 C 225.30 674.67 226.67 679.63 230.33 682.72 C 234.90 686.71 241.62 686.69 247.21 685.29 C 253.10 683.76 257.36 678.04 257.34 671.99 C 257.35 653.10 257.37 634.21 257.33 615.32 C 262.30 615.38 267.27 615.33 272.24 615.35 C 272.21 634.56 272.23 653.76 272.23 672.96 C 272.20 680.03 269.47 687.29 263.98 691.92 C 257.19 697.83 247.83 699.69 239.05 699.38 C 232.00 699.13 224.61 697.54 219.11 692.87 C 213.57 688.30 210.84 681.02 210.77 673.96 C 210.75 654.42 210.80 634.88 210.75 615.34 Z" />
<path fill="#181617" opacity="1.00" d=" M 289.04 615.32 C 307.18 615.38 325.32 615.35 343.46 615.34 C 343.41 619.70 343.42 624.06 343.45 628.43 C 330.19 628.44 316.93 628.42 303.67 628.44 C 303.64 634.81 303.63 641.19 303.68 647.56 C 313.45 647.57 323.22 647.57 333.00 647.57 C 333.00 651.78 333.00 656.00 333.01 660.23 C 323.22 660.24 313.44 660.22 303.66 660.23 C 303.64 672.81 303.65 685.40 303.66 697.99 C 298.77 698.02 293.88 697.98 289.00 698.00 C 289.04 670.44 288.95 642.88 289.04 615.32 Z" />
<path fill="#181617" opacity="1.00" d=" M 356.34 615.27 C 369.84 614.66 383.90 613.31 396.90 617.90 C 403.62 620.18 409.32 625.78 410.66 632.90 C 412.75 643.32 410.47 656.06 401.06 662.32 C 392.34 668.01 381.30 668.50 371.23 667.61 C 371.22 677.74 371.21 687.87 371.23 698.00 C 366.26 698.00 361.30 698.01 356.33 697.99 C 356.37 670.41 356.35 642.84 356.34 615.27 M 371.21 628.06 C 371.25 636.87 371.19 645.68 371.25 654.49 C 377.16 654.90 383.36 655.16 388.94 652.85 C 397.77 649.64 398.90 635.17 390.58 630.73 C 384.66 627.72 377.70 627.45 371.21 628.06 Z" />
<path fill="#181617" opacity="1.00" d=" M 424.01 615.34 C 441.67 615.35 459.32 615.36 476.98 615.34 C 477.01 619.70 477.00 624.07 477.00 628.44 C 464.34 628.41 451.69 628.45 439.03 628.42 C 438.96 634.80 439.01 641.19 439.01 647.57 C 448.09 647.57 457.16 647.55 466.24 647.59 C 466.22 651.79 466.22 656.00 466.23 660.21 C 457.16 660.25 448.08 660.22 439.01 660.23 C 438.99 668.41 438.98 676.59 439.01 684.77 C 451.48 684.77 463.95 684.79 476.43 684.76 C 476.43 689.16 476.43 693.58 476.43 697.99 C 458.95 698.01 441.48 697.99 424.00 698.00 C 424.01 670.45 423.98 642.89 424.01 615.34 Z" />
</g>
</svg>
